<svg width="24" height="25" viewBox="0 0 24 25" fill="none" xmlns="http://www.w3.org/2000/svg">
<path d="M12.2492 12.3359C11.4124 12.3769 10.7999 12.1083 10.1714 11.5413C8.7473 10.2566 7.73303 7.48341 8.27543 5.61839C8.36843 5.2987 8.44238 5.18279 8.50118 4.83374C8.71662 3.55476 10.7382 2.80349 11.8548 2.75394C12.8841 2.73266 13.9599 2.9036 14.768 3.59711C15.0882 3.87193 15.3955 4.26632 15.5237 4.67151C15.5777 4.84236 15.6035 5.02109 15.6576 5.19171C15.704 5.33781 15.7614 5.48001 15.8016 5.62814C16.1325 6.844 15.8377 8.21706 15.3695 9.35294C14.8403 10.6368 13.7702 12.2283 12.2492 12.3359ZM14.2937 5.30897C13.3667 5.43044 12.702 6.24918 11.9475 6.34221C11.319 6.41969 10.6679 6.17035 10.1154 5.90046C9.57901 5.63845 9.25111 5.46303 9.03466 6.13653C8.58492 7.53588 9.23281 9.52172 10.1673 10.6479C10.6029 11.1511 11.1268 11.6232 11.8244 11.6772C13.865 11.835 15.0935 9.00644 15.207 7.27892C15.2424 6.73986 15.2071 5.33676 14.4278 5.3056L14.2937 5.30897Z" fill="currentColor"/>
<path d="M15.1618 20.2713L5.74658 20.2708C5.63228 20.2706 5.49142 20.2852 5.3817 20.2516C4.6971 20.0418 4.57151 19.5922 4.57076 18.9793L4.57031 17.1137C4.57069 16.5427 4.59259 16.0647 4.7094 15.5C5.03895 13.907 5.45445 13.784 6.94665 13.197L9.72934 12.1268C9.89449 12.0607 10.0575 11.9833 10.2301 11.9391L10.2417 11.9369C10.3575 11.931 10.9286 12.4607 11.0466 12.5552L12.0001 13.2736C12.4225 12.9982 12.8234 12.6791 13.2227 12.3715C13.4104 12.2269 13.5945 12.0546 13.8026 11.9417C14.0787 12.0261 14.3424 12.1376 14.6107 12.2431L16.8146 13.0783C17.3438 13.28 18.3081 13.597 18.7172 13.996C19.2751 14.5402 19.4857 15.9349 19.4944 16.6955L19.494 19.0782C19.4922 19.6583 19.2537 20.1427 18.6193 20.2598C18.4994 20.282 18.3653 20.2707 18.2432 20.2708L15.1618 20.2713ZM14.5316 12.8763L13.6869 13.9128C13.4721 14.1835 13.2808 14.4694 13.0297 14.7095C12.9269 14.6434 12.8742 14.5884 12.8164 14.48L12.596 14.8376L13.6245 19.5986L16.7287 19.5998L18.3692 19.5995C18.8267 19.5979 18.856 19.4015 18.8567 18.9678L18.8558 16.5778C18.8464 16.0622 18.6629 14.8223 18.2927 14.467C18.0176 14.203 17.2862 13.9741 16.9314 13.8331C16.1337 13.5158 15.3092 13.2394 14.5316 12.8763ZM9.51904 12.8887L6.30131 14.1715C5.88315 14.3544 5.688 14.4877 5.51831 14.9342C5.28311 15.5531 5.20414 16.2139 5.20324 16.8712L5.20305 18.6464C5.2032 18.904 5.127 19.4477 5.42921 19.5708L5.46731 19.5836C5.54059 19.6068 5.63479 19.5996 5.71133 19.5997L7.41263 19.5998L10.1816 19.5996C10.4667 19.5996 10.4276 19.6696 10.4866 19.409L11.4703 14.7961C11.4037 14.6752 11.3337 14.5669 11.25 14.4572C11.2078 14.5658 11.167 14.6432 11.0872 14.7288C10.9048 14.6229 10.7704 14.4098 10.6397 14.2466L10.1061 13.5861C9.92449 13.355 9.74111 13.0819 9.51904 12.8887Z" fill="currentColor"/>
<path d="M16.8772 18.6281C16.7822 18.6194 16.6423 18.6385 16.5426 18.6386L15.3189 18.6388C14.4225 18.6372 14.6043 17.7831 15.0467 17.6643L15.1331 17.6472L16.294 17.6434C16.4801 17.6436 16.6862 17.6264 16.8702 17.6509C17.4399 17.7268 17.4436 18.5126 16.8772 18.6281Z" fill="currentColor"/>
</svg>
