<svg width="179" height="55" viewBox="0 0 179 55" fill="none" xmlns="http://www.w3.org/2000/svg">
<path d="M146.375 53.786V47.6162H146.965V53.786H146.375Z" fill="#1A3C6C"/>
<path d="M143.377 53.8276C142.922 53.8276 142.523 53.7334 142.18 53.5449C141.836 53.3509 141.567 53.0876 141.373 52.755C141.179 52.4168 141.082 52.0315 141.082 51.5992C141.082 51.1668 141.173 50.7843 141.356 50.4517C141.545 50.1191 141.8 49.8585 142.121 49.6701C142.448 49.476 142.814 49.379 143.219 49.379C143.629 49.379 143.992 49.4733 144.308 49.6617C144.63 49.8447 144.882 50.1052 145.065 50.4434C145.248 50.776 145.339 51.1612 145.339 51.5992C145.339 51.6269 145.337 51.6574 145.331 51.6906C145.331 51.7183 145.331 51.7488 145.331 51.7821H141.531V51.3414H145.015L144.782 51.516C144.782 51.2 144.713 50.9201 144.574 50.6762C144.441 50.4267 144.258 50.2327 144.026 50.0941C143.793 49.9555 143.524 49.8862 143.219 49.8862C142.92 49.8862 142.651 49.9555 142.412 50.0941C142.174 50.2327 141.988 50.4267 141.855 50.6762C141.722 50.9256 141.656 51.2111 141.656 51.5326V51.6241C141.656 51.9567 141.728 52.2505 141.872 52.5055C142.022 52.755 142.227 52.9517 142.487 53.0959C142.753 53.2345 143.055 53.3037 143.394 53.3037C143.66 53.3037 143.906 53.2566 144.134 53.1624C144.366 53.0682 144.566 52.924 144.732 52.73L145.065 53.1125C144.871 53.3453 144.627 53.5227 144.333 53.6447C144.045 53.7666 143.726 53.8276 143.377 53.8276Z" fill="#1A3C6C"/>
<path d="M138.427 53.7859L136.489 49.4205H137.105L138.884 53.4699H138.593L140.397 49.4205H140.979L139.034 53.7859H138.427Z" fill="#1A3C6C"/>
<path d="M135.383 53.786V52.8215L135.358 52.6635V51.0504C135.358 50.679 135.253 50.3935 135.042 50.1939C134.837 49.9943 134.529 49.8946 134.119 49.8946C133.836 49.8946 133.567 49.9417 133.312 50.0359C133.057 50.1302 132.841 50.2549 132.664 50.4101L132.398 49.9694C132.619 49.7809 132.885 49.6368 133.196 49.537C133.506 49.4317 133.833 49.379 134.177 49.379C134.743 49.379 135.178 49.5204 135.483 49.8031C135.793 50.0803 135.948 50.5043 135.948 51.0753V53.786H135.383ZM133.878 53.8276C133.551 53.8276 133.265 53.7749 133.021 53.6696C132.783 53.5587 132.6 53.4091 132.472 53.2206C132.345 53.0266 132.281 52.8048 132.281 52.5554C132.281 52.3281 132.334 52.123 132.439 51.9401C132.55 51.7516 132.727 51.6019 132.971 51.4911C133.221 51.3746 133.553 51.3164 133.969 51.3164H135.474V51.7571H133.986C133.565 51.7571 133.271 51.832 133.104 51.9816C132.944 52.1313 132.863 52.317 132.863 52.5388C132.863 52.7882 132.96 52.9878 133.154 53.1374C133.348 53.2871 133.62 53.362 133.969 53.362C134.302 53.362 134.587 53.2871 134.826 53.1374C135.07 52.9822 135.247 52.7605 135.358 52.4722L135.491 52.8797C135.38 53.1679 135.186 53.398 134.909 53.5698C134.637 53.7417 134.293 53.8276 133.878 53.8276Z" fill="#1A3C6C"/>
<path d="M129.866 53.786V49.4206H130.431V50.6097L130.373 50.4018C130.495 50.0692 130.7 49.817 130.988 49.6451C131.277 49.4677 131.634 49.379 132.061 49.379V49.9528C132.039 49.9528 132.017 49.9528 131.994 49.9528C131.972 49.9472 131.95 49.9445 131.928 49.9445C131.468 49.9445 131.107 50.0858 130.847 50.3685C130.586 50.6457 130.456 51.042 130.456 51.5576V53.786H129.866Z" fill="#1A3C6C"/>
<path d="M126.627 53.7859V48.4975H124.581V47.9654H129.287V48.4975H127.242V53.7859H126.627Z" fill="#1A3C6C"/>
<path d="M120.168 53.8359C119.791 53.8359 119.456 53.7749 119.162 53.653C118.868 53.5255 118.636 53.3509 118.464 53.1291C118.298 52.9074 118.214 52.6496 118.214 52.3558C118.214 52.1064 118.27 51.8791 118.381 51.674C118.492 51.4633 118.669 51.2582 118.913 51.0587C119.162 50.8536 119.492 50.6401 119.902 50.4184C120.252 50.2244 120.523 50.0581 120.717 49.9195C120.917 49.7754 121.058 49.6396 121.141 49.5121C121.224 49.379 121.266 49.2377 121.266 49.088C121.266 48.8718 121.191 48.6972 121.041 48.5642C120.897 48.4311 120.689 48.3646 120.418 48.3646C120.124 48.3646 119.897 48.4394 119.736 48.5891C119.575 48.7332 119.495 48.9217 119.495 49.1545C119.495 49.2709 119.512 49.3818 119.545 49.4871C119.584 49.5924 119.653 49.7089 119.753 49.8364C119.858 49.9639 120.002 50.1246 120.185 50.3186L123.262 53.4867L122.921 53.8775L119.711 50.5764C119.517 50.3713 119.362 50.1939 119.245 50.0442C119.135 49.889 119.057 49.7421 119.013 49.6035C118.968 49.465 118.946 49.3181 118.946 49.1628C118.946 48.9134 119.004 48.6972 119.121 48.5143C119.243 48.3258 119.414 48.1817 119.636 48.0819C119.858 47.9766 120.119 47.9239 120.418 47.9239C120.689 47.9239 120.925 47.971 121.125 48.0652C121.33 48.1539 121.488 48.2842 121.599 48.4561C121.715 48.6279 121.773 48.8358 121.773 49.0797C121.773 49.2903 121.721 49.4871 121.615 49.6701C121.515 49.853 121.349 50.0331 121.116 50.2105C120.883 50.3824 120.568 50.5764 120.168 50.7926C119.819 50.9866 119.542 51.164 119.337 51.3248C119.137 51.4855 118.996 51.6435 118.913 51.7987C118.83 51.9484 118.788 52.1147 118.788 52.2976C118.788 52.5083 118.846 52.694 118.963 52.8547C119.085 53.0099 119.251 53.1319 119.462 53.2206C119.678 53.3037 119.924 53.3453 120.202 53.3453C120.59 53.3453 120.936 53.2649 121.241 53.1042C121.546 52.9434 121.801 52.6995 122.006 52.3725C122.217 52.0454 122.369 51.6352 122.463 51.1418L122.937 51.2915C122.832 51.8458 122.652 52.3115 122.397 52.6884C122.142 53.0654 121.826 53.3509 121.449 53.5449C121.072 53.7389 120.645 53.8359 120.168 53.8359Z" fill="#1A3C6C"/>
<path d="M114.564 53.8276C114.204 53.8276 113.863 53.7777 113.541 53.6779C113.22 53.5726 112.968 53.4423 112.785 53.2871L113.051 52.8215C113.228 52.9545 113.455 53.0709 113.733 53.1707C114.01 53.2649 114.301 53.3121 114.606 53.3121C115.021 53.3121 115.321 53.2483 115.504 53.1208C115.687 52.9878 115.778 52.8132 115.778 52.597C115.778 52.4362 115.725 52.3115 115.62 52.2228C115.52 52.1285 115.387 52.0593 115.221 52.0149C115.055 51.965 114.869 51.9234 114.664 51.8902C114.459 51.8569 114.254 51.8181 114.049 51.7738C113.849 51.7294 113.666 51.6657 113.5 51.5825C113.333 51.4938 113.198 51.3746 113.092 51.225C112.993 51.0753 112.943 50.8757 112.943 50.6263C112.943 50.3879 113.009 50.1745 113.142 49.986C113.275 49.7976 113.469 49.6507 113.724 49.5453C113.985 49.4345 114.301 49.379 114.672 49.379C114.955 49.379 115.238 49.4178 115.52 49.4954C115.803 49.5675 116.036 49.6645 116.219 49.7865L115.961 50.2604C115.767 50.1274 115.559 50.0331 115.337 49.9777C115.116 49.9167 114.894 49.8862 114.672 49.8862C114.279 49.8862 113.988 49.9555 113.799 50.0941C113.616 50.2272 113.525 50.399 113.525 50.6097C113.525 50.776 113.575 50.9062 113.674 51.0005C113.78 51.0947 113.916 51.1695 114.082 51.225C114.254 51.2749 114.439 51.3164 114.639 51.3497C114.844 51.383 115.046 51.4245 115.246 51.4744C115.451 51.5188 115.637 51.5825 115.803 51.6657C115.975 51.7433 116.111 51.8569 116.21 52.0066C116.316 52.1507 116.368 52.342 116.368 52.5803C116.368 52.8353 116.296 53.0571 116.152 53.2455C116.014 53.4285 115.809 53.5726 115.537 53.6779C115.271 53.7777 114.947 53.8276 114.564 53.8276Z" fill="#1A3C6C"/>
<path d="M109.159 52.6551L109.176 51.8985L111.895 49.4206H112.619L110.698 51.2582L110.365 51.5409L109.159 52.6551ZM108.694 53.786V47.6162H109.284V53.786H108.694ZM112.078 53.786L110.257 51.516L110.64 51.0587L112.801 53.786H112.078Z" fill="#1A3C6C"/>
<path d="M105.696 53.8276C105.242 53.8276 104.843 53.7334 104.499 53.5449C104.155 53.3509 103.886 53.0876 103.692 52.755C103.498 52.4168 103.401 52.0315 103.401 51.5992C103.401 51.1668 103.493 50.7843 103.676 50.4517C103.864 50.1191 104.119 49.8585 104.441 49.6701C104.768 49.476 105.134 49.379 105.538 49.379C105.949 49.379 106.312 49.4733 106.628 49.6617C106.949 49.8447 107.201 50.1052 107.384 50.4434C107.567 50.776 107.659 51.1612 107.659 51.5992C107.659 51.6269 107.656 51.6574 107.65 51.6906C107.65 51.7183 107.65 51.7488 107.65 51.7821H103.85V51.3414H107.334L107.102 51.516C107.102 51.2 107.032 50.9201 106.894 50.6762C106.761 50.4267 106.578 50.2327 106.345 50.0941C106.112 49.9555 105.843 49.8862 105.538 49.8862C105.239 49.8862 104.97 49.9555 104.732 50.0941C104.493 50.2327 104.308 50.4267 104.175 50.6762C104.042 50.9256 103.975 51.2111 103.975 51.5326V51.6241C103.975 51.9567 104.047 52.2505 104.191 52.5055C104.341 52.755 104.546 52.9517 104.807 53.0959C105.073 53.2345 105.375 53.3037 105.713 53.3037C105.979 53.3037 106.226 53.2566 106.453 53.1624C106.686 53.0682 106.885 52.924 107.052 52.73L107.384 53.1125C107.19 53.3453 106.946 53.5227 106.653 53.6447C106.364 53.7666 106.046 53.8276 105.696 53.8276Z" fill="#1A3C6C"/>
<path d="M100.776 53.786V49.4206H101.342V50.6097L101.284 50.4018C101.406 50.0692 101.611 49.817 101.899 49.6451C102.187 49.4677 102.545 49.379 102.972 49.379V49.9528C102.949 49.9528 102.927 49.9528 102.905 49.9528C102.883 49.9472 102.861 49.9445 102.839 49.9445C102.378 49.9445 102.018 50.0858 101.758 50.3685C101.497 50.6457 101.367 51.042 101.367 51.5576V53.786H100.776Z" fill="#1A3C6C"/>
<path d="M97.5372 53.7859V48.4975H95.4917V47.9654H100.198V48.4975H98.1525V53.7859H97.5372Z" fill="#1A3C6C"/>
<path d="M92.9834 55L93.3493 53.4617L93.4158 53.8193C93.2883 53.8193 93.1802 53.7777 93.0915 53.6946C93.0084 53.6114 92.9668 53.5033 92.9668 53.3703C92.9668 53.2372 93.0084 53.1291 93.0915 53.046C93.1802 52.9628 93.2855 52.9213 93.4075 52.9213C93.535 52.9213 93.6375 52.9656 93.7152 53.0543C93.7983 53.143 93.8399 53.2483 93.8399 53.3703C93.8399 53.4146 93.8371 53.459 93.8316 53.5033C93.826 53.5477 93.8149 53.5976 93.7983 53.653C93.7817 53.7084 93.7595 53.7749 93.7318 53.8526L93.3826 55H92.9834Z" fill="#1A3C6C"/>
<path d="M90.6198 53.8276C90.2594 53.8276 89.9185 53.7777 89.597 53.6779C89.2755 53.5726 89.0233 53.4423 88.8403 53.2871L89.1064 52.8215C89.2838 52.9545 89.5111 53.0709 89.7883 53.1707C90.0654 53.2649 90.3564 53.3121 90.6613 53.3121C91.0771 53.3121 91.3764 53.2483 91.5594 53.1208C91.7423 52.9878 91.8338 52.8132 91.8338 52.597C91.8338 52.4362 91.7811 52.3115 91.6758 52.2228C91.576 52.1285 91.443 52.0593 91.2767 52.0149C91.1103 51.965 90.9246 51.9234 90.7195 51.8902C90.5144 51.8569 90.3093 51.8181 90.1042 51.7738C89.9047 51.7294 89.7217 51.6657 89.5554 51.5825C89.3891 51.4938 89.2533 51.3746 89.148 51.225C89.0482 51.0753 88.9983 50.8757 88.9983 50.6263C88.9983 50.3879 89.0648 50.1745 89.1979 49.986C89.3309 49.7976 89.5249 49.6507 89.7799 49.5453C90.0405 49.4345 90.3564 49.379 90.7279 49.379C91.0106 49.379 91.2933 49.4178 91.576 49.4954C91.8587 49.5675 92.0915 49.6645 92.2745 49.7865L92.0167 50.2604C91.8227 50.1274 91.6148 50.0331 91.3931 49.9777C91.1713 49.9167 90.9496 49.8862 90.7279 49.8862C90.3343 49.8862 90.0432 49.9555 89.8548 50.0941C89.6718 50.2272 89.5804 50.399 89.5804 50.6097C89.5804 50.776 89.6303 50.9062 89.73 51.0005C89.8354 51.0947 89.9712 51.1695 90.1375 51.225C90.3093 51.2749 90.495 51.3164 90.6946 51.3497C90.8997 51.383 91.102 51.4245 91.3016 51.4744C91.5067 51.5188 91.6924 51.5825 91.8587 51.6657C92.0306 51.7433 92.1664 51.8569 92.2661 52.0066C92.3715 52.1507 92.4241 52.342 92.4241 52.5803C92.4241 52.8353 92.3521 53.0571 92.2079 53.2455C92.0694 53.4285 91.8642 53.5726 91.5926 53.6779C91.3265 53.7777 91.0023 53.8276 90.6198 53.8276Z" fill="#1A3C6C"/>
<path d="M86.2925 53.786V49.4206H86.8579V50.6097L86.7997 50.4018C86.9217 50.0692 87.1268 49.817 87.415 49.6451C87.7033 49.4677 88.0608 49.379 88.4877 49.379V49.9528C88.4655 49.9528 88.4433 49.9528 88.4211 49.9528C88.399 49.9472 88.3768 49.9445 88.3546 49.9445C87.8945 49.9445 87.5342 50.0858 87.2737 50.3685C87.0131 50.6457 86.8829 51.042 86.8829 51.5576V53.786H86.2925Z" fill="#1A3C6C"/>
<path d="M82.6765 53.8275C82.3051 53.8275 81.9808 53.7582 81.7036 53.6196C81.4265 53.481 81.2103 53.2731 81.0551 52.996C80.9054 52.7188 80.8306 52.3723 80.8306 51.9566V49.4205H81.4209V51.89C81.4209 52.3557 81.5346 52.7077 81.7619 52.9461C81.9947 53.1789 82.319 53.2953 82.7347 53.2953C83.0396 53.2953 83.3029 53.2343 83.5247 53.1124C83.7519 52.9849 83.9238 52.8019 84.0402 52.5636C84.1621 52.3252 84.2231 52.0397 84.2231 51.7071V49.4205H84.8135V53.7859H84.2481V52.5885L84.3395 52.8047C84.2009 53.1262 83.9848 53.3784 83.691 53.5614C83.4027 53.7388 83.0646 53.8275 82.6765 53.8275Z" fill="#1A3C6C"/>
<path d="M77.6049 53.8276C77.1836 53.8276 76.8039 53.7334 76.4657 53.5449C76.1331 53.3509 75.8698 53.0876 75.6758 52.755C75.4818 52.4168 75.3848 52.0315 75.3848 51.5992C75.3848 51.1612 75.4818 50.776 75.6758 50.4434C75.8698 50.1108 76.1331 49.8502 76.4657 49.6617C76.7983 49.4733 77.1781 49.379 77.6049 49.379C78.0373 49.379 78.4198 49.4733 78.7524 49.6617C79.0905 49.8502 79.3538 50.1108 79.5423 50.4434C79.7363 50.776 79.8333 51.1612 79.8333 51.5992C79.8333 52.0315 79.7363 52.4168 79.5423 52.755C79.3538 53.0876 79.0905 53.3509 78.7524 53.5449C78.4142 53.7334 78.0317 53.8276 77.6049 53.8276ZM77.6049 53.3037C77.9209 53.3037 78.2008 53.2345 78.4447 53.0959C78.6886 52.9517 78.8799 52.7522 79.0185 52.4972C79.1626 52.2366 79.2346 51.9373 79.2346 51.5992C79.2346 51.2555 79.1626 50.9561 79.0185 50.7011C78.8799 50.4461 78.6886 50.2493 78.4447 50.1108C78.2008 49.9666 77.9236 49.8946 77.6132 49.8946C77.3028 49.8946 77.0256 49.9666 76.7817 50.1108C76.5378 50.2493 76.3438 50.4461 76.1996 50.7011C76.0555 50.9561 75.9835 51.2555 75.9835 51.5992C75.9835 51.9373 76.0555 52.2366 76.1996 52.4972C76.3438 52.7522 76.5378 52.9517 76.7817 53.0959C77.0256 53.2345 77.3 53.3037 77.6049 53.3037Z" fill="#1A3C6C"/>
<path d="M72.9273 53.7859V48.4975H70.8818V47.9654H75.5882V48.4975H73.5427V53.7859H72.9273Z" fill="#1A3C6C"/>
<path d="M161.249 27.7618L158.428 25.3209C158.103 25.0394 157.599 25.1526 157.427 25.5471C155.773 29.3545 153.151 35.408 152.283 37.4745C152.082 37.952 151.871 38.5888 152.035 39.08C152.85 41.5167 156.203 38.3987 157.401 36.1254L161.396 28.5409C161.534 28.2787 161.473 27.9557 161.249 27.7618Z" fill="#EF4F5F"/>
<path d="M168.93 3.82725C168.93 5.94099 167.216 7.65451 165.103 7.65451C162.989 7.65451 161.275 5.94099 161.275 3.82725C161.275 1.71351 162.989 -1.52588e-05 165.103 -1.52588e-05C167.216 -1.52588e-05 168.93 1.71351 168.93 3.82725Z" fill="#1A3C6C"/>
<path d="M160.522 9.23075C160.992 8.37612 162.427 8.44734 163.086 8.58978C164.018 9.0311 165.243 9.6113 166.513 10.2152C169.478 11.6245 170.56 14.3485 170.848 14.837C171.146 15.3441 171.2 15.3638 171.568 15.7317C172.354 15.7317 173.166 15.6545 173.897 15.5534C175.602 15.3176 178.438 15.1549 178.082 16.8387C177.927 17.5684 177.295 17.8243 176.569 17.9952L172.128 19.0408C170.763 19.4499 169.547 18.5209 168.566 17.4863L166.903 15.7317C165.777 14.7164 165.777 15.4523 165.427 16.1772L164.577 20.4733C164.496 20.8836 164.621 21.3065 164.91 21.6091C166.216 22.9773 168.219 25.1542 168.448 25.7175C169.413 27.2707 169.458 28.522 169.36 28.9534L168.674 36.6809C168.526 38.3442 167.623 40.9544 166.032 40.4475C164.428 39.9364 164.47 38.0979 164.527 36.4157C164.611 33.9585 164.729 31.1545 164.83 30.6302C164.971 29.9007 164.634 29.4241 164.448 29.277C162.634 27.7571 158.905 24.629 158.505 24.276C158.005 23.8348 157.799 23.3053 157.424 21.9968C156.729 16.3883 159.934 10.299 160.522 9.23075Z" fill="#EF4F5F"/>
<path fill-rule="evenodd" clip-rule="evenodd" d="M155.843 6.99031C157.445 6.99031 159.354 7.7083 159.987 8.8525C160.105 9.0645 160.024 9.31803 159.874 9.50888C158.561 11.1878 157.27 16.2025 156.705 18.8998C156.665 19.0928 156.539 19.2582 156.359 19.3376C155.784 19.5906 155.241 19.7332 154.732 19.7958C154.871 20.8023 155.022 22.2545 154.819 22.2545H154.415C154.85 21.5937 154.664 20.6439 154.479 19.8207C154.076 19.8502 153.697 19.8305 153.342 19.7777C153.131 20.7015 152.848 21.7394 152.684 21.6799L152.304 21.5424C152.823 21.1555 153.016 20.4452 153.127 19.7413C152.852 19.6889 152.592 19.6174 152.348 19.535C151.275 19.1722 150.646 18.0652 150.711 16.9342C151.056 10.9605 154.113 6.99031 155.843 6.99031Z" fill="#1A3C6C"/>
<path d="M147.144 18.4036V39.7168H142.395V37.0027C141.596 37.9606 140.598 38.7057 139.401 39.2378C138.204 39.7434 136.913 39.9962 135.53 39.9962C132.682 39.9962 130.434 39.2112 128.784 37.6413C127.161 36.0448 126.35 33.69 126.35 30.5769V18.4036H131.339V29.8983C131.339 31.8141 131.764 33.251 132.616 34.2089C133.494 35.1402 134.731 35.6058 136.328 35.6058C138.111 35.6058 139.521 35.0603 140.559 33.9694C141.623 32.8519 142.155 31.2554 142.155 29.1799V18.4036H147.144Z" fill="#1A3C6C"/>
<path d="M123.79 18.4036L114.65 39.7168H109.502L100.362 18.4036H105.55L112.176 34.2089L119.001 18.4036H123.79Z" fill="#1A3C6C"/>
<path d="M91.2936 27.9163C91.2936 27.0859 91.9668 26.4127 92.7973 26.4127H97.2336C98.064 26.4127 98.7372 27.0859 98.7372 27.9163V28.4914V29.0666C98.7372 29.897 98.064 30.5702 97.2336 30.5702H92.7973C91.9668 30.5702 91.2936 29.897 91.2936 29.0666V27.9163Z" fill="#1A3C6C"/>
<path d="M86.2429 18.4036V39.7168H81.4933V36.9629C80.6684 37.974 79.644 38.7323 78.42 39.2379C77.2227 39.7434 75.8923 39.9962 74.4288 39.9962C72.3534 39.9962 70.4908 39.5439 68.8411 38.6392C67.218 37.7345 65.9408 36.4573 65.0095 34.8076C64.1048 33.1579 63.6525 31.2421 63.6525 29.0602C63.6525 26.8783 64.1048 24.9759 65.0095 23.3527C65.9408 21.703 67.218 20.4258 68.8411 19.5212C70.4908 18.6165 72.3534 18.1641 74.4288 18.1641C75.8124 18.1641 77.0763 18.4036 78.2205 18.8826C79.3912 19.3615 80.4024 20.0666 81.2538 20.9979V18.4036H86.2429ZM74.9876 35.7256C76.8235 35.7256 78.3402 35.1136 79.5376 33.8896C80.735 32.6656 81.3336 31.0558 81.3336 29.0602C81.3336 27.0646 80.735 25.4548 79.5376 24.2308C78.3402 23.0068 76.8235 22.3949 74.9876 22.3949C73.1516 22.3949 71.6349 23.0068 70.4376 24.2308C69.2668 25.4548 68.6814 27.0646 68.6814 29.0602C68.6814 31.0558 69.2668 32.6656 70.4376 33.8896C71.6349 35.1136 73.1516 35.7256 74.9876 35.7256ZM70.2985 11.9942C69.5414 11.4099 69.9546 10.1983 70.9109 10.1983H73.3798C73.6438 10.1983 73.8972 10.3025 74.0849 10.4882L79.1385 15.49H74.8279L70.2985 11.9942Z" fill="#1A3C6C"/>
<path d="M51.8415 47.7392C49.7394 47.7392 48.1429 47.3267 47.052 46.5019L48.4888 42.79C49.2339 43.3488 50.2051 43.6282 51.4025 43.6282C52.3337 43.6282 53.0389 43.3355 53.5178 42.7501C54.0234 42.1913 54.2762 41.3532 54.2762 40.2356V18.4036H59.2652V40.1159C59.2652 42.484 58.6133 44.3466 57.3095 45.7036C56.0057 47.0607 54.183 47.7392 51.8415 47.7392ZM56.7507 14.8913C55.846 14.8913 55.0877 14.6119 54.4757 14.0531C53.8637 13.4677 53.5577 12.7493 53.5577 11.8978C53.5577 11.0464 53.8637 10.3413 54.4757 9.78249C55.0877 9.19711 55.846 8.90442 56.7507 8.90442C57.6554 8.90442 58.4137 9.18381 59.0257 9.74258C59.6377 10.2747 59.9437 10.9533 59.9437 11.7781C59.9437 12.6562 59.6377 13.4012 59.0257 14.0132C58.4403 14.5986 57.682 14.8913 56.7507 14.8913Z" fill="#1A3C6C"/>
<path d="M39.7842 35.7655C42.0991 35.7655 44.0282 34.9939 45.5715 33.4506L48.2057 36.5238C47.2744 37.668 46.0771 38.5328 44.6136 39.1181C43.1502 39.7035 41.5004 39.9962 39.6645 39.9962C37.323 39.9962 35.2608 39.5306 33.4781 38.5993C31.6953 37.668 30.3117 36.3775 29.3272 34.7278C28.3693 33.0515 27.8903 31.1623 27.8903 29.0602C27.8903 26.9848 28.356 25.1222 29.2873 23.4725C30.2452 21.7962 31.549 20.4924 33.1987 19.5611C34.875 18.6298 36.7642 18.1641 38.8662 18.1641C40.8619 18.1641 42.6712 18.6032 44.2943 19.4812C45.944 20.3327 47.2478 21.57 48.2057 23.1931C49.1636 24.7896 49.6426 26.6655 49.6426 28.8207L33.3184 32.0137C33.824 33.2377 34.6355 34.169 35.7531 34.8076C36.8706 35.4462 38.2143 35.7655 39.7842 35.7655ZM38.8662 22.1554C37.0303 22.1554 35.5402 22.7541 34.396 23.9514C33.2785 25.1488 32.7197 26.7586 32.7197 28.7808V28.8207L44.7733 26.5058C44.4274 25.202 43.7222 24.151 42.6579 23.3527C41.6202 22.5545 40.3563 22.1554 38.8662 22.1554ZM40.2364 10.5024C40.4251 10.308 40.6846 10.1983 40.9556 10.1983H43.4833C44.4321 10.1983 44.85 11.3941 44.1076 11.985L39.7044 15.49H35.3939L40.2364 10.5024Z" fill="#1A3C6C"/>
<path d="M23.519 10.1018V39.7168H18.7295V36.9628C17.9047 37.9739 16.8802 38.7323 15.6563 39.2378C14.4589 39.7434 13.1285 39.9962 11.665 39.9962C9.61618 39.9962 7.76691 39.5438 6.11719 38.6391C4.49409 37.7345 3.21689 36.4573 2.28561 34.8076C1.35432 33.1312 0.888672 31.2154 0.888672 29.0602C0.888672 26.9049 1.35432 25.0024 2.28561 23.3527C3.21689 21.703 4.49409 20.4258 6.11719 19.5211C7.76691 18.6164 9.61618 18.1641 11.665 18.1641C13.0753 18.1641 14.3658 18.4036 15.5365 18.8825C16.7073 19.3615 17.7051 20.0799 18.5299 21.0378V10.1018H23.519ZM12.2637 35.7255C13.4611 35.7255 14.5387 35.4595 15.4966 34.9273C16.4545 34.3685 17.2128 33.5836 17.7716 32.5725C18.3304 31.5614 18.6098 30.3906 18.6098 29.0602C18.6098 27.7298 18.3304 26.559 17.7716 25.5479C17.2128 24.5368 16.4545 23.7651 15.4966 23.233C14.5387 22.6742 13.4611 22.3948 12.2637 22.3948C11.0663 22.3948 9.9887 22.6742 9.0308 23.233C8.0729 23.7651 7.31457 24.5368 6.75579 25.5479C6.19702 26.559 5.91763 27.7298 5.91763 29.0602C5.91763 30.3906 6.19702 31.5614 6.75579 32.5725C7.31457 33.5836 8.0729 34.3685 9.0308 34.9273C9.9887 35.4595 11.0663 35.7255 12.2637 35.7255Z" fill="#1A3C6C"/>
</svg>
